<?xml version="1.0" encoding="UTF-8"?>
<!-- Generator: visioncortex VTracer 0.6.4 -->
<svg version="1.1" xmlns="http://www.w3.org/2000/svg" width="320" height="320">
<path d="M0 0 C1.37 -0 2.74 -0.01 4.11 -0.01 C6.96 -0.02 9.8 -0.01 12.65 0.01 C16.27 0.03 19.89 0.02 23.51 -0 C26.33 -0.02 29.15 -0.01 31.97 -0 C33.94 -0 35.92 -0.01 37.89 -0.02 C49.05 0.09 59.29 2.44 67.43 10.53 C74.87 19.91 76.58 28.52 76.58 40.25 C76.58 41.21 76.59 42.17 76.59 43.16 C76.6 46.33 76.6 49.51 76.6 52.68 C76.6 54.89 76.61 57.1 76.61 59.31 C76.62 63.95 76.62 68.58 76.62 73.21 C76.62 79.14 76.63 85.06 76.65 90.99 C76.66 95.56 76.66 100.12 76.66 104.69 C76.66 106.88 76.67 109.06 76.68 111.24 C76.69 114.3 76.68 117.36 76.68 120.43 C76.68 121.32 76.69 122.21 76.69 123.13 C76.64 134.25 74.06 143.08 66.65 151.58 C57.53 160.34 46.63 161.15 34.53 161.06 C33.11 161.07 31.7 161.07 30.28 161.07 C27.33 161.08 24.39 161.07 21.44 161.05 C17.69 161.03 13.94 161.04 10.19 161.07 C7.27 161.08 4.36 161.08 1.44 161.07 C0.06 161.06 -1.32 161.07 -2.7 161.08 C-14.21 161.14 -24.21 159.75 -32.78 151.52 C-40.87 142.53 -42.87 134.06 -42.84 122.23 C-42.85 121.24 -42.85 120.24 -42.86 119.21 C-42.87 115.92 -42.87 112.64 -42.87 109.35 C-42.87 107.06 -42.88 104.76 -42.88 102.46 C-42.89 97.66 -42.89 92.85 -42.88 88.04 C-42.88 81.9 -42.89 75.76 -42.92 69.62 C-42.93 64.88 -42.93 60.14 -42.93 55.4 C-42.93 53.13 -42.93 50.87 -42.94 48.6 C-42.96 45.43 -42.95 42.26 -42.94 39.09 C-42.95 38.16 -42.95 37.24 -42.96 36.29 C-42.88 26.19 -40.41 18.06 -33.57 10.53 C-33.06 9.97 -32.56 9.42 -32.04 8.84 C-23.4 0.41 -11.42 -0.07 0 0 Z M-5.29 34.04 C-7.12 37.62 -7 41.05 -6.99 44.98 C-6.99 45.83 -7 46.69 -7.01 47.56 C-7.04 50.37 -7.04 53.18 -7.04 56 C-7.04 57.95 -7.05 59.91 -7.06 61.86 C-7.07 65.96 -7.07 70.06 -7.07 74.16 C-7.06 79.41 -7.09 84.66 -7.13 89.91 C-7.16 93.94 -7.16 97.98 -7.16 102.02 C-7.16 103.96 -7.17 105.89 -7.19 107.83 C-7.21 110.54 -7.2 113.24 -7.18 115.95 C-7.19 116.75 -7.21 117.55 -7.22 118.37 C-7.16 122.38 -6.74 124.31 -4.27 127.53 C-0.69 130.18 2.33 130.22 6.62 130.12 C7.79 130.13 7.79 130.13 8.99 130.13 C10.63 130.12 12.27 130.1 13.92 130.07 C16.43 130.03 18.93 130.03 21.44 130.04 C23.04 130.03 24.64 130.02 26.25 130 C26.99 130 27.74 130 28.51 130 C32.95 129.9 35.94 129.36 39.43 126.53 C40.68 122.78 40.59 119.28 40.59 115.38 C40.6 114.54 40.6 113.71 40.61 112.86 C40.62 110.1 40.63 107.35 40.64 104.6 C40.64 102.69 40.65 100.78 40.65 98.87 C40.66 94.86 40.67 90.85 40.67 86.84 C40.68 81.7 40.7 76.56 40.73 71.43 C40.75 67.48 40.76 63.53 40.76 59.58 C40.76 57.68 40.77 55.79 40.78 53.9 C40.8 51.25 40.8 48.6 40.79 45.95 C40.8 45.16 40.81 44.38 40.82 43.58 C40.78 39.1 40.41 35.99 37.43 32.53 C35.53 31.79 35.53 31.79 33.38 31.9 C32.57 31.89 31.76 31.88 30.92 31.86 C29.61 31.88 29.61 31.88 28.28 31.9 C27.38 31.9 26.48 31.9 25.55 31.9 C23.65 31.9 21.75 31.91 19.85 31.93 C16.94 31.97 14.04 31.95 11.12 31.94 C9.28 31.94 7.43 31.95 5.59 31.96 C4.72 31.96 3.85 31.95 2.95 31.95 C1.73 31.97 1.73 31.97 0.49 32 C-0.22 32 -0.94 32.01 -1.67 32.02 C-3.69 32.42 -3.69 32.42 -5.29 34.04 Z " fill="#FFFFFF" transform="translate(82.56640625,77.46875)"/>
<path d="M0 0 C7.92 0 15.84 0 24 0 C28.85 8.44 33.51 16.89 37.81 25.62 C44.4 39 51.56 52.08 59 65 C66.43 53.6 72.7 41.57 79.09 29.57 C82.02 24.08 84.98 18.61 87.93 13.13 C89.43 10.34 90.93 7.56 92.43 4.77 C93.28 3.2 94.13 1.62 95 0 C103.25 0 111.5 0 120 0 C118.65 3.38 117.42 6.21 115.64 9.31 C114.94 10.53 114.94 10.53 114.22 11.79 C113.71 12.66 113.21 13.54 112.69 14.44 C112.15 15.36 111.62 16.29 111.07 17.25 C105.74 26.51 100.3 35.71 94.84 44.9 C92.43 48.96 90.02 53.03 87.61 57.1 C84.07 63.07 80.54 69.03 77 75 C86.57 75 96.14 75 106 75 C106 79.62 106 84.24 106 89 C94.12 89 82.24 89 70 89 C70 94.28 70 99.56 70 105 C81.88 105 93.76 105 106 105 C106 109.95 106 114.9 106 120 C94.12 120 82.24 120 70 120 C70 133.2 70 146.4 70 160 C62.41 160 54.82 160 47 160 C47 146.8 47 133.6 47 120 C35.12 120 23.24 120 11 120 C11 115.05 11 110.1 11 105 C22.88 105 34.76 105 47 105 C47 99.72 47 94.44 47 89 C35.12 89 23.24 89 11 89 C11 84.38 11 79.76 11 75 C20.24 74.67 29.48 74.34 39 74 C31.68 59.88 24.24 45.85 16.59 31.9 C13.68 26.59 10.77 21.26 7.88 15.94 C7.32 14.92 6.76 13.9 6.19 12.85 C5.67 11.9 5.15 10.95 4.62 9.96 C4.16 9.13 3.7 8.29 3.23 7.42 C2.01 5.02 1 2.51 0 0 Z " fill="#FFFFFF" transform="translate(168,78)"/>
</svg>
